<svg width="36" height="36" viewBox="0 0 36 36" fill="none" xmlns="http://www.w3.org/2000/svg">
<g clip-path="url(#clip0_44_40)">
<rect width="36" height="36" fill="white" fill-opacity="0.01"/>
<path d="M27.4543 18.3683C26.0643 14.2082 22.3294 11.2229 17.9271 11.2229C16.3513 11.2229 14.865 11.6118 13.5384 12.2955L11.2748 10.032L9.59082 11.716L24.5794 26.7045L26.2634 25.0205L24.323 23.0802C25.7359 21.8528 26.8319 20.2309 27.4543 18.3682L27.4543 18.3683ZM17.9271 13.6047C20.558 13.6047 22.6907 15.7374 22.6907 18.3683C22.6907 19.2516 22.4402 20.0699 22.0179 20.775L20.2274 18.9846C20.2805 18.7883 20.3089 18.5818 20.3089 18.3683C20.3089 17.0528 19.2425 15.9865 17.9271 15.9865C17.7143 15.9865 17.5101 16.0186 17.3142 16.0714L15.535 14.2921C16.2391 13.8707 17.0452 13.6047 17.9271 13.6047Z" fill="#97ADB6"/>
<path d="M17.9276 23.1319C15.2967 23.1319 13.164 20.9992 13.164 18.3683C13.164 17.9444 13.2371 17.5409 13.341 17.1497L10.6788 14.4876C9.6781 15.5834 8.89087 16.9003 8.40039 18.3683C9.79038 22.5284 13.5253 25.5137 17.9276 25.5137C19.0539 25.5137 20.1355 25.3157 21.1465 24.9552L19.1462 22.9549C18.755 23.0588 18.3515 23.1319 17.9276 23.1319Z" fill="#97ADB6"/>
</g>
<defs>
<clipPath id="clip0_44_40">
<rect width="36" height="36" fill="white" transform="matrix(-1 0 0 1 36 0)"/>
</clipPath>
</defs>
</svg>
